<?xml version="1.0" encoding="utf-8"?>
<!-- Generator: Adobe Illustrator 23.0.0, SVG Export Plug-In . SVG Version: 6.00 Build 0)  -->
<svg version="1.1" xmlns="http://www.w3.org/2000/svg" xmlns:xlink="http://www.w3.org/1999/xlink" x="0px" y="0px"
	 viewBox="0 0 331 167" style="enable-background:new 0 0 331 167;" xml:space="preserve">
<style type="text/css">
	.st0{fill:#6DC674;}
	.st1{fill:#D8D8D8;stroke:#000000;stroke-width:0.5;stroke-miterlimit:10;}
	.st2{fill:#616063;}
</style>
<g id="Layer_3">
	<rect x="431" y="-37" class="st0" width="744" height="292"/>
</g>
<g id="Layer_2">
	<g>
		<path class="st1" d="M16.39,87.15H9.03v24.3c0,3.47-0.38,6.11-1.14,7.9c-0.76,1.8-1.71,2.69-2.87,2.69
			c-1.21,0-2.18-0.89-2.92-2.66C1.37,117.61,1,115,1,111.57V45.41c0-3.83,0.41-6.56,1.22-8.2c0.81-1.64,2.1-2.46,3.87-2.46h10.31
			c3.05,0,5.39,0.51,7.03,1.52c1.62,0.98,3.02,2.6,4.21,4.86c1.18,2.26,2.08,5.04,2.69,8.31c0.61,3.28,0.92,6.97,0.92,11.07
			c0,8.74-1.24,15.37-3.73,19.88S21.31,87.15,16.39,87.15z M14.44,47.81H9.03v26.23h5.41c1.89,0,3.48-0.43,4.75-1.29
			c1.27-0.86,2.24-2.26,2.91-4.22c0.67-1.95,1-4.51,1-7.67c0-3.79-0.51-6.87-1.54-9.25C20.4,49.08,18.03,47.81,14.44,47.81z"/>
		<path class="st1" d="M58.45,110.87l-1.89-10.77H40.44l-1.89,11.01c-0.74,4.29-1.37,7.19-1.89,8.69c-0.52,1.5-1.38,2.25-2.57,2.25
			c-1.01,0-1.9-0.8-2.68-2.4c-0.78-1.6-1.16-3.42-1.16-5.45c0-1.17,0.09-2.38,0.27-3.63c0.18-1.25,0.48-2.99,0.89-5.21l10.14-55.74
			c0.29-1.6,0.64-3.52,1.04-5.77c0.41-2.24,0.84-4.11,1.3-5.59c0.46-1.48,1.06-2.68,1.81-3.6c0.75-0.92,4.82-0.92,5.57,0
			c0.75,0.92,1.35,2.1,1.81,3.54c0.46,1.44,0.85,3,1.16,4.65c0.32,1.66,0.72,3.87,1.2,6.65l10.36,55.39
			c0.81,4.22,1.22,7.28,1.22,9.19c0,1.99-0.38,3.82-1.15,5.47c-0.77,1.66-1.69,2.49-2.77,2.49c-0.63,0-2.45-1.88-2.76-2.72
			c-0.31-0.84-0.64-2.13-0.99-3.86C59.01,113.73,58.7,112.19,58.45,110.87z M42.55,87.04h11.85l-5.98-35.42L42.55,87.04z"/>
		<path class="st1" d="M80.79,43.83v62.47h16.28c1.3,0,2.29,0.68,2.99,2.05c0.69,1.37,1.04,3.08,1.04,5.15
			c0,2.11-0.34,3.82-1.03,5.12c-0.69,1.31-1.69,1.96-3,1.96H77.68c-1.75,0-3.01-0.84-3.77-2.52c-0.77-1.68-1.15-4.39-1.15-8.14
			v-66.1c0-3.51,0.37-6.15,1.1-7.9c0.73-1.76,5.07-1.77,5.82-0.03C80.42,37.63,80.79,40.28,80.79,43.83z"/>
		<path class="st1" d="M134.41,94.82c0,5.19-0.62,9.86-1.85,13.99c-1.24,4.14-3.04,7.38-5.42,9.72c-2.38,2.34-5.2,3.51-8.47,3.51
			c-3.91,0-7.14-1.6-9.68-4.8c-1.8-2.3-3.27-5.38-4.4-9.22c-1.13-3.84-1.69-7.58-1.69-11.21c0-2.11,0.34-3.91,1.01-5.42
			c0.68-1.5,4.15-1.67,4.73-0.5c0.59,1.17,1.09,2.91,1.5,5.21c0.5,2.73,1.05,5.02,1.64,6.85c0.59,1.83,1.41,3.35,2.47,4.54
			c1.06,1.19,2.46,1.79,4.19,1.79c2.38,0,4.31-1.2,5.8-3.6c1.49-2.4,2.23-5.4,2.23-8.99c0-2.85-0.4-5.16-1.2-6.94
			c-0.8-1.78-1.84-3.13-3.11-4.07c-1.27-0.94-8.82-6.95-10.8-9.1c-2.54-1.83-3.04-2.91-5.27-7.4c-1.13-3.34-2.45-6.94-2.45-11.9
			c0-4.72,0.6-8.92,1.79-12.59c1.19-3.67,2.91-6.49,5.17-8.46c2.25-1.97,4.9-2.96,7.95-2.96c2.43,0,4.54,0.65,6.32,1.96
			c1.78,1.31,3.25,3.04,4.42,5.21c1.17,2.17,2.03,4.44,2.57,6.82c0.54,2.38,0.81,4.7,0.81,6.97c0,2.07-0.34,3.93-1.01,5.59
			c-0.68,1.66-4.15,1.99-4.63,1s-1-2.62-1.55-4.89c-0.72-3.24-1.59-5.77-2.6-7.58c-1.01-1.82-2.63-2.72-4.87-2.72
			c-2.07,0-3.75,0.99-5.02,2.96c-1.27,1.97-1.91,4.34-1.91,7.11c0,1.72,0.22,3.2,0.65,4.45c0.43,1.25,1.03,2.32,1.79,3.22
			c0.76,0.9,1.52,1.6,2.3,2.11c0.77,0.51,11.19,10.5,12.46,12.45c1.27,1.95,2.11,2.19,5.06,8.02
			C134.05,88.94,134.41,90.49,134.41,94.82z"/>
	</g>
	<g>
		<path class="st1" d="M131.83,387.1h-10.26v33.87c0,4.84-0.53,8.52-1.58,11.02c-1.06,2.5-2.39,3.75-4,3.75
			c-1.68,0-3.04-1.24-4.07-3.71c-1.03-2.48-1.55-6.11-1.55-10.9V328.9c0-5.33,0.57-9.14,1.7-11.43c1.13-2.29,2.93-3.43,5.39-3.43
			h14.37c4.25,0,7.52,0.71,9.8,2.12c2.26,1.36,4.22,3.62,5.86,6.77c1.65,3.16,2.9,7.02,3.75,11.59c0.85,4.57,1.28,9.71,1.28,15.43
			c0,12.19-1.73,21.43-5.2,27.71C143.86,383.96,138.69,387.1,131.83,387.1z M129.11,332.25h-7.54v36.57h7.54
			c2.64,0,4.85-0.6,6.62-1.8c1.77-1.2,3.12-3.16,4.05-5.88c0.93-2.72,1.4-6.29,1.4-10.69c0-5.28-0.72-9.58-2.15-12.9
			C137.42,334.02,134.12,332.25,129.11,332.25z"/>
	</g>
	<g>
		<path class="st2" d="M121.74,115.29h33.97c3.38,0,5.96,0.99,7.74,2.97c1.78,1.98,2.67,4.68,2.67,8.08c0,3.03-0.71,5.61-2.12,7.71
			c-1.41,2.11-3.54,3.16-6.41,3.16h-47.89c-3.25,0-5.79-1.28-7.61-3.85c-1.82-2.57-2.73-5.59-2.73-9.06c0-2.23,0.59-5.18,1.76-8.87
			c1.17-3.68,2.45-6.58,3.84-8.68c5.77-8.54,10.97-15.86,15.62-21.96c4.64-6.1,7.96-10.11,9.96-12.03c3.56-3.59,6.52-7.2,8.88-10.82
			c2.36-3.62,4.16-7.34,5.4-11.14c1.24-3.81,1.86-7.54,1.86-11.19c0-3.96-0.66-7.51-1.99-10.63c-1.32-3.13-3.12-5.56-5.4-7.29
			c-2.28-1.73-4.76-2.6-7.45-2.6c-5.68,0-10.15,3.56-13.4,10.68c-0.43,0.93-1.16,3.47-2.18,7.61c-1.02,4.15-2.17,7.34-3.45,9.57
			c-1.28,2.23-3.15,3.34-5.63,3.34c-2.17,0-3.97-1.02-5.4-3.06c-1.43-2.04-2.15-4.83-2.15-8.36c0-4.27,0.67-8.73,2.02-13.37
			c1.34-4.64,3.35-8.85,6.02-12.63c2.67-3.78,6.05-6.83,10.15-9.15s8.9-3.48,14.41-3.48c6.64,0,12.3,1.49,16.98,4.46
			c3.03,1.98,5.7,4.71,8,8.17c2.3,3.47,4.09,7.48,5.37,12.03c1.28,4.55,1.92,9.27,1.92,14.16c0,7.68-1.34,14.66-4,20.94
			c-2.67,6.28-5.39,11.21-8.16,14.77c-2.78,3.56-7.43,9.15-13.96,16.76c-6.53,7.61-11.01,13.53-13.44,17.74
			C123.89,110.93,122.83,112.94,121.74,115.29z"/>
	</g>
	<g>
		<path class="st2" d="M159.79,448.98h47.35c4.72,0,8.31,1.38,10.79,4.14c2.48,2.77,3.72,6.52,3.72,11.26
			c0,4.23-0.98,7.81-2.95,10.75c-1.96,2.94-4.94,4.4-8.93,4.4h-66.76c-4.54,0-8.07-1.79-10.61-5.37c-2.54-3.58-3.81-7.79-3.81-12.63
			c0-3.11,0.82-7.23,2.45-12.36c1.63-5.14,3.41-9.17,5.35-12.11c8.04-11.91,15.3-22.11,21.77-30.62c6.47-8.5,11.1-14.09,13.88-16.77
			c4.96-5.01,9.09-10.03,12.38-15.08c3.3-5.05,5.81-10.23,7.53-15.54s2.59-10.51,2.59-15.6c0-5.52-0.92-10.46-2.77-14.82
			c-1.84-4.36-4.35-7.75-7.53-10.16c-3.17-2.42-6.64-3.62-10.38-3.62c-7.92,0-14.15,4.96-18.69,14.89
			c-0.61,1.29-1.62,4.83-3.04,10.62c-1.42,5.78-3.02,10.23-4.81,13.33c-1.78,3.11-4.4,4.66-7.84,4.66c-3.03,0-5.53-1.42-7.53-4.27
			c-2-2.85-2.99-6.73-2.99-11.65c0-5.96,0.94-12.17,2.81-18.64c1.87-6.47,4.67-12.34,8.39-17.61c3.72-5.26,8.44-9.52,14.15-12.75
			s12.41-4.85,20.09-4.85c9.25,0,17.14,2.07,23.68,6.21c4.23,2.76,7.95,6.56,11.16,11.39c3.2,4.83,5.7,10.42,7.48,16.77
			c1.79,6.34,2.68,12.93,2.68,19.74c0,10.7-1.86,20.43-5.58,29.19c-3.72,8.76-7.51,15.62-11.38,20.58
			c-3.87,4.96-10.36,12.75-19.46,23.37c-9.1,10.61-15.34,18.86-18.73,24.73C162.78,442.89,161.3,445.7,159.79,448.98z"/>
	</g>
	<g>
		<path d="M10.72,161.5H3.79c-1,0-1.72-0.18-2.14-0.53c-0.43-0.36-0.64-0.92-0.64-1.7v-13.5c0-0.79,0.22-1.36,0.66-1.71
			c0.44-0.35,1.15-0.52,2.13-0.52h7.35c1.08,0,2.02,0.05,2.82,0.16c0.79,0.11,1.51,0.31,2.14,0.61c0.54,0.25,1.01,0.57,1.42,0.96
			c0.41,0.39,0.73,0.82,0.94,1.29c0.22,0.47,0.33,0.97,0.33,1.49c0,1.8-1.14,3.11-3.41,3.95c2.98,0.75,4.47,2.21,4.47,4.39
			c0,1-0.33,1.91-0.98,2.71c-0.65,0.8-1.53,1.4-2.63,1.78c-0.69,0.23-1.49,0.39-2.38,0.48S11.92,161.5,10.72,161.5z M5.6,146.26
			v4.64h4.21c1.15,0,2.03-0.09,2.65-0.26c0.62-0.17,1.1-0.5,1.43-0.98c0.26-0.34,0.39-0.73,0.39-1.15c0-0.91-0.41-1.51-1.22-1.81
			c-0.82-0.3-2.06-0.45-3.73-0.45H5.6z M10.38,153.52H5.6v5.25h4.94c3.11,0,4.66-0.89,4.66-2.66c0-0.91-0.4-1.56-1.21-1.97
			C13.18,153.72,11.98,153.52,10.38,153.52z"/>
		<path d="M35.33,155.82h-8.27c0.01,0.76,0.2,1.43,0.58,2.01c0.38,0.58,0.88,1.02,1.5,1.31c0.62,0.29,1.31,0.44,2.07,0.44
			c0.51,0,0.97-0.05,1.39-0.14c0.42-0.09,0.82-0.24,1.22-0.44c0.39-0.2,0.75-0.41,1.08-0.64c0.33-0.23,0.76-0.54,1.28-0.93
			c0.22-0.15,0.53-0.22,0.93-0.22c0.43,0,0.78,0.09,1.05,0.28c0.27,0.19,0.4,0.45,0.4,0.8c0,0.3-0.15,0.66-0.45,1.06
			c-0.3,0.4-0.75,0.79-1.35,1.16c-0.6,0.37-1.36,0.68-2.28,0.93c-0.91,0.25-1.96,0.37-3.15,0.37c-2.71,0-4.82-0.61-6.33-1.84
			c-1.51-1.23-2.26-2.89-2.26-4.99c0-0.99,0.19-1.91,0.56-2.75c0.37-0.85,0.91-1.57,1.63-2.17c0.71-0.6,1.59-1.07,2.63-1.39
			c1.04-0.32,2.2-0.48,3.47-0.48c1.65,0,3.07,0.28,4.25,0.83c1.18,0.55,2.07,1.26,2.65,2.14c0.59,0.87,0.88,1.76,0.88,2.67
			c0,0.84-0.3,1.39-0.91,1.64C37.29,155.7,36.44,155.82,35.33,155.82z M27.07,153.92h7.66c-0.1-1.14-0.49-2-1.17-2.57
			c-0.68-0.57-1.57-0.85-2.67-0.85c-1.05,0-1.92,0.29-2.59,0.86C27.62,151.94,27.21,152.79,27.07,153.92z"/>
		<path d="M42.61,148.49h0.46v-2.01c0-0.54,0.02-0.96,0.05-1.27c0.04-0.31,0.14-0.57,0.3-0.79c0.17-0.23,0.4-0.41,0.71-0.56
			c0.31-0.14,0.66-0.21,1.04-0.21c0.54,0,1.02,0.16,1.46,0.48c0.29,0.21,0.47,0.47,0.55,0.78c0.08,0.31,0.12,0.74,0.12,1.3v2.28
			h1.55c0.6,0,1.06,0.11,1.37,0.34c0.31,0.22,0.47,0.51,0.47,0.86c0,0.45-0.22,0.76-0.67,0.94s-1.09,0.27-1.93,0.27H47.3v6.15
			c0,0.52,0.02,0.93,0.07,1.21c0.05,0.28,0.17,0.51,0.37,0.69c0.2,0.18,0.53,0.26,0.98,0.26c0.25,0,0.58-0.03,1.01-0.1
			c0.42-0.07,0.75-0.1,0.99-0.1c0.34,0,0.65,0.11,0.92,0.32c0.27,0.22,0.41,0.48,0.41,0.8c0,0.54-0.37,0.95-1.11,1.24
			s-1.81,0.43-3.2,0.43c-1.32,0-2.32-0.18-3-0.53c-0.68-0.35-1.13-0.84-1.34-1.46c-0.21-0.62-0.32-1.45-0.32-2.49v-6.42h-0.56
			c-0.61,0-1.07-0.11-1.39-0.34c-0.32-0.23-0.48-0.52-0.48-0.87c0-0.35,0.17-0.64,0.5-0.86C41.48,148.61,41.97,148.49,42.61,148.49z
			"/>
		<path d="M53.83,148.49h0.46v-2.01c0-0.54,0.02-0.96,0.05-1.27c0.04-0.31,0.14-0.57,0.3-0.79c0.17-0.23,0.4-0.41,0.71-0.56
			c0.31-0.14,0.66-0.21,1.04-0.21c0.54,0,1.02,0.16,1.46,0.48c0.29,0.21,0.47,0.47,0.55,0.78c0.08,0.31,0.12,0.74,0.12,1.3v2.28
			h1.55c0.6,0,1.06,0.11,1.37,0.34c0.31,0.22,0.47,0.51,0.47,0.86c0,0.45-0.22,0.76-0.67,0.94s-1.09,0.27-1.93,0.27h-0.79v6.15
			c0,0.52,0.02,0.93,0.07,1.21c0.05,0.28,0.17,0.51,0.37,0.69c0.2,0.18,0.53,0.26,0.98,0.26c0.25,0,0.58-0.03,1.01-0.1
			c0.42-0.07,0.75-0.1,0.99-0.1c0.34,0,0.65,0.11,0.92,0.32c0.27,0.22,0.41,0.48,0.41,0.8c0,0.54-0.37,0.95-1.11,1.24
			c-0.74,0.29-1.81,0.43-3.2,0.43c-1.32,0-2.32-0.18-3-0.53s-1.13-0.84-1.34-1.46c-0.21-0.62-0.32-1.45-0.32-2.49v-6.42h-0.56
			c-0.61,0-1.07-0.11-1.39-0.34c-0.32-0.23-0.48-0.52-0.48-0.87c0-0.35,0.17-0.64,0.5-0.86C52.7,148.61,53.19,148.49,53.83,148.49z"
			/>
		<path d="M76.61,155.82h-8.27c0.01,0.76,0.2,1.43,0.58,2.01c0.38,0.58,0.88,1.02,1.5,1.31c0.62,0.29,1.31,0.44,2.07,0.44
			c0.51,0,0.97-0.05,1.39-0.14c0.42-0.09,0.82-0.24,1.22-0.44c0.39-0.2,0.75-0.41,1.08-0.64c0.33-0.23,0.76-0.54,1.28-0.93
			c0.22-0.15,0.53-0.22,0.93-0.22c0.43,0,0.78,0.09,1.05,0.28c0.27,0.19,0.4,0.45,0.4,0.8c0,0.3-0.15,0.66-0.45,1.06
			c-0.3,0.4-0.75,0.79-1.35,1.16c-0.6,0.37-1.36,0.68-2.28,0.93c-0.91,0.25-1.96,0.37-3.15,0.37c-2.71,0-4.82-0.61-6.33-1.84
			c-1.51-1.23-2.26-2.89-2.26-4.99c0-0.99,0.19-1.91,0.56-2.75c0.37-0.85,0.91-1.57,1.63-2.17s1.59-1.07,2.63-1.39
			c1.04-0.32,2.2-0.48,3.47-0.48c1.65,0,3.07,0.28,4.25,0.83c1.18,0.55,2.07,1.26,2.65,2.14c0.59,0.87,0.88,1.76,0.88,2.67
			c0,0.84-0.3,1.39-0.91,1.64C78.57,155.7,77.72,155.82,76.61,155.82z M68.35,153.92h7.66c-0.1-1.14-0.49-2-1.17-2.57
			c-0.68-0.57-1.57-0.85-2.67-0.85c-1.05,0-1.92,0.29-2.59,0.86C68.9,151.94,68.49,152.79,68.35,153.92z"/>
		<path d="M87.85,156.97v2.79c0,0.68-0.2,1.19-0.6,1.53c-0.4,0.34-0.91,0.51-1.53,0.51c-0.61,0-1.11-0.17-1.5-0.51
			c-0.39-0.34-0.59-0.85-0.59-1.52v-9.31c0-1.5,0.69-2.25,2.06-2.25c0.7,0,1.21,0.18,1.52,0.53c0.31,0.35,0.48,0.87,0.51,1.56
			c0.51-0.69,1.02-1.2,1.56-1.56c0.53-0.35,1.24-0.53,2.13-0.53c0.89,0,1.75,0.18,2.58,0.53c0.84,0.35,1.25,0.82,1.25,1.4
			c0,0.41-0.18,0.75-0.53,1.01s-0.74,0.4-1.15,0.4c-0.15,0-0.53-0.08-1.12-0.23c-0.59-0.15-1.12-0.23-1.57-0.23
			c-0.62,0-1.13,0.13-1.52,0.39c-0.39,0.26-0.7,0.64-0.91,1.15c-0.22,0.51-0.37,1.11-0.45,1.81
			C87.89,155.12,87.85,155.97,87.85,156.97z"/>
		<path d="M105.7,148.49h0.46v-2.01c0-0.54,0.02-0.96,0.05-1.27c0.04-0.31,0.14-0.57,0.3-0.79c0.17-0.23,0.4-0.41,0.71-0.56
			c0.31-0.14,0.66-0.21,1.04-0.21c0.54,0,1.02,0.16,1.46,0.48c0.29,0.21,0.47,0.47,0.55,0.78c0.08,0.31,0.12,0.74,0.12,1.3v2.28
			h1.55c0.6,0,1.06,0.11,1.37,0.34c0.31,0.22,0.47,0.51,0.47,0.86c0,0.45-0.22,0.76-0.67,0.94s-1.09,0.27-1.93,0.27h-0.79v6.15
			c0,0.52,0.02,0.93,0.07,1.21c0.05,0.28,0.17,0.51,0.37,0.69c0.2,0.18,0.53,0.26,0.98,0.26c0.25,0,0.58-0.03,1.01-0.1
			c0.42-0.07,0.75-0.1,0.99-0.1c0.34,0,0.65,0.11,0.92,0.32c0.27,0.22,0.41,0.48,0.41,0.8c0,0.54-0.37,0.95-1.11,1.24
			s-1.81,0.43-3.2,0.43c-1.32,0-2.32-0.18-3-0.53c-0.68-0.35-1.13-0.84-1.34-1.46c-0.21-0.62-0.32-1.45-0.32-2.49v-6.42h-0.56
			c-0.61,0-1.07-0.11-1.39-0.34c-0.32-0.23-0.48-0.52-0.48-0.87c0-0.35,0.17-0.64,0.5-0.86
			C104.57,148.61,105.06,148.49,105.7,148.49z"/>
		<path d="M120.82,145.26v4.96c0.54-0.49,1.06-0.88,1.57-1.16c0.51-0.29,1.08-0.5,1.7-0.64c0.62-0.14,1.28-0.21,2-0.21
			c1.07,0,2.03,0.18,2.86,0.54c0.83,0.36,1.48,0.88,1.96,1.57c0.3,0.4,0.5,0.85,0.6,1.34c0.1,0.49,0.15,1.06,0.15,1.71v6.41
			c0,0.67-0.19,1.18-0.58,1.52s-0.9,0.51-1.54,0.51c-1.39,0-2.09-0.68-2.09-2.03v-5.65c0-1.07-0.2-1.89-0.6-2.47
			c-0.4-0.58-1.17-0.86-2.29-0.86c-0.75,0-1.43,0.17-2.04,0.51c-0.6,0.34-1.06,0.8-1.35,1.39c-0.23,0.5-0.34,1.38-0.34,2.66v4.42
			c0,0.66-0.19,1.17-0.56,1.51c-0.38,0.35-0.9,0.52-1.57,0.52c-1.39,0-2.09-0.68-2.09-2.03v-14.51c0-0.68,0.18-1.19,0.55-1.53
			c0.37-0.34,0.88-0.51,1.54-0.51c0.67,0,1.19,0.17,1.57,0.51C120.63,144.08,120.82,144.59,120.82,145.26z"/>
		<path d="M146.52,159.91c-1.02,0.63-2.01,1.1-2.96,1.42c-0.95,0.31-2.03,0.47-3.21,0.47c-1.08,0-2.04-0.17-2.86-0.51
			c-0.82-0.34-1.45-0.8-1.9-1.38c-0.44-0.58-0.66-1.21-0.66-1.89c0-0.91,0.37-1.7,1.1-2.34s1.74-1.08,3.02-1.3
			c0.27-0.05,0.93-0.16,2-0.33s1.97-0.33,2.73-0.47c0.76-0.14,1.58-0.32,2.47-0.52c-0.05-0.88-0.28-1.53-0.67-1.94
			c-0.4-0.41-1.22-0.62-2.47-0.62c-1.07,0-1.88,0.12-2.42,0.36c-0.54,0.24-1.01,0.59-1.39,1.07c-0.39,0.47-0.66,0.79-0.82,0.94
			c-0.16,0.15-0.5,0.23-1.03,0.23c-0.48,0-0.89-0.12-1.23-0.36s-0.52-0.55-0.52-0.93c0-0.59,0.26-1.16,0.79-1.72
			c0.53-0.56,1.35-1.01,2.46-1.37c1.11-0.36,2.5-0.54,4.16-0.54c1.86,0,3.32,0.17,4.38,0.52c1.06,0.35,1.81,0.9,2.25,1.65
			c0.44,0.75,0.66,1.75,0.66,2.99c0,0.78,0,1.45-0.01,2c0,0.55-0.01,1.16-0.02,1.83c0,0.63,0.13,1.28,0.4,1.97
			c0.26,0.68,0.4,1.12,0.4,1.32c0,0.34-0.2,0.66-0.61,0.94c-0.41,0.28-0.87,0.42-1.39,0.42c-0.43,0-0.86-0.16-1.28-0.48
			C147.44,161,146.99,160.53,146.52,159.91z M146.24,155.07c-0.62,0.18-1.52,0.37-2.7,0.57s-2,0.35-2.45,0.44
			c-0.45,0.09-0.89,0.28-1.3,0.55c-0.41,0.27-0.62,0.66-0.62,1.15c0,0.51,0.24,0.94,0.73,1.29c0.49,0.35,1.12,0.53,1.9,0.53
			c0.84,0,1.61-0.14,2.31-0.43c0.71-0.29,1.22-0.66,1.56-1.12c0.38-0.51,0.57-1.34,0.57-2.5V155.07z"/>
		<path d="M158.51,150.05v0.4c0.74-0.78,1.56-1.35,2.44-1.71c0.88-0.36,1.9-0.55,3.04-0.55c1.11,0,2.11,0.19,2.99,0.58
			c0.88,0.38,1.53,0.93,1.97,1.63c0.28,0.41,0.46,0.85,0.54,1.32c0.08,0.47,0.12,1.08,0.12,1.81v6.23c0,0.67-0.19,1.18-0.58,1.52
			c-0.39,0.34-0.89,0.51-1.51,0.51c-0.63,0-1.14-0.18-1.53-0.53c-0.39-0.35-0.59-0.85-0.59-1.51v-5.58c0-1.1-0.19-1.95-0.58-2.53
			c-0.39-0.58-1.16-0.88-2.31-0.88c-0.75,0-1.44,0.18-2.06,0.53c-0.62,0.36-1.07,0.84-1.36,1.46c-0.21,0.5-0.31,1.43-0.31,2.79v4.19
			c0,0.68-0.2,1.19-0.6,1.53c-0.4,0.34-0.91,0.51-1.54,0.51c-0.61,0-1.11-0.18-1.5-0.53c-0.39-0.35-0.59-0.85-0.59-1.51v-9.67
			c0-0.64,0.18-1.11,0.53-1.43c0.35-0.31,0.83-0.47,1.44-0.47c0.37,0,0.71,0.07,1.01,0.21c0.3,0.14,0.54,0.35,0.72,0.63
			C158.42,149.31,158.51,149.65,158.51,150.05z"/>
		<path d="M186,150.2v11.35c0,0.81-0.03,1.47-0.1,1.98c-0.07,0.51-0.16,0.88-0.29,1.11c-0.7,1.42-2.19,2.13-4.47,2.13
			c-1.28,0-2.25-0.14-2.91-0.42c-0.66-0.28-0.99-0.68-0.99-1.21c0-0.39,0.15-0.71,0.45-0.96c0.3-0.25,0.69-0.37,1.18-0.37
			c0.06,0,0.16,0.01,0.3,0.02c0.14,0.01,0.35,0.03,0.62,0.04c0.27,0.02,0.46,0.02,0.57,0.02c0.57,0,0.95-0.18,1.14-0.53
			c0.19-0.35,0.29-0.98,0.29-1.89V150.2c0-0.66,0.2-1.16,0.59-1.5c0.39-0.33,0.91-0.5,1.55-0.5c0.62,0,1.12,0.17,1.51,0.5
			C185.81,149.03,186,149.53,186,150.2z M183.91,146.64c-0.59,0-1.09-0.14-1.51-0.43c-0.42-0.29-0.63-0.69-0.63-1.21
			c0-0.47,0.21-0.86,0.64-1.17c0.43-0.31,0.93-0.46,1.49-0.46c0.55,0,1.03,0.14,1.46,0.42c0.42,0.28,0.63,0.68,0.63,1.21
			c0,0.51-0.21,0.92-0.62,1.21C184.97,146.5,184.48,146.64,183.91,146.64z"/>
		<path d="M201.31,159.91v-0.43c-0.51,0.51-1.04,0.93-1.59,1.27c-0.56,0.34-1.17,0.6-1.83,0.77c-0.66,0.17-1.41,0.25-2.26,0.25
			c-1.02,0-1.94-0.17-2.75-0.5c-0.81-0.33-1.44-0.8-1.88-1.38c-0.53-0.71-0.79-1.73-0.79-3.06v-6.63c0-0.67,0.19-1.17,0.57-1.5
			c0.38-0.33,0.89-0.5,1.52-0.5c0.64,0,1.16,0.17,1.55,0.5c0.39,0.33,0.59,0.83,0.59,1.5v5.36c0,0.78,0.08,1.43,0.25,1.95
			c0.16,0.53,0.46,0.94,0.89,1.24c0.43,0.3,1.01,0.45,1.74,0.45c0.71,0,1.38-0.17,2.01-0.5c0.63-0.33,1.09-0.77,1.38-1.31
			c0.24-0.47,0.36-1.51,0.36-3.11v-4.07c0-0.66,0.2-1.16,0.59-1.5c0.39-0.33,0.9-0.5,1.53-0.5c0.63,0,1.13,0.17,1.52,0.5
			c0.38,0.33,0.57,0.83,0.57,1.5v9.69c0,0.64-0.18,1.12-0.55,1.43c-0.37,0.32-0.84,0.48-1.42,0.48c-0.58,0-1.06-0.17-1.43-0.5
			C201.5,160.97,201.31,160.51,201.31,159.91z"/>
		<path d="M223.09,157.43c0,0.92-0.28,1.71-0.85,2.37c-0.57,0.66-1.41,1.16-2.52,1.5c-1.11,0.34-2.46,0.51-4.05,0.51
			c-1.52,0-2.82-0.18-3.9-0.55c-1.08-0.37-1.88-0.83-2.4-1.38c-0.52-0.55-0.77-1.1-0.77-1.66c0-0.37,0.16-0.68,0.5-0.94
			c0.33-0.26,0.75-0.39,1.25-0.39c0.44,0,0.78,0.09,1.02,0.26c0.24,0.17,0.46,0.41,0.68,0.72c0.43,0.6,0.95,1.04,1.56,1.34
			c0.6,0.29,1.43,0.44,2.47,0.44c0.85,0,1.54-0.15,2.08-0.45c0.54-0.3,0.81-0.64,0.81-1.02c0-0.59-0.28-1.02-0.84-1.29
			c-0.56-0.27-1.49-0.53-2.78-0.77c-1.46-0.29-2.64-0.59-3.55-0.9c-0.91-0.31-1.64-0.73-2.19-1.24c-0.55-0.51-0.82-1.15-0.82-1.9
			c0-0.67,0.25-1.3,0.76-1.9c0.51-0.6,1.25-1.07,2.24-1.43c0.99-0.36,2.17-0.53,3.57-0.53c1.09,0,2.08,0.09,2.95,0.27
			c0.87,0.18,1.6,0.42,2.18,0.72c0.58,0.3,1.03,0.64,1.33,1c0.3,0.37,0.46,0.73,0.46,1.08c0,0.38-0.16,0.7-0.49,0.94
			c-0.33,0.25-0.79,0.37-1.39,0.37c-0.43,0-0.8-0.1-1.11-0.29c-0.3-0.2-0.65-0.49-1.04-0.88c-0.32-0.33-0.7-0.59-1.13-0.78
			c-0.43-0.2-1.02-0.29-1.76-0.29c-0.76,0-1.4,0.13-1.9,0.39c-0.51,0.26-0.76,0.58-0.76,0.96c0,0.35,0.19,0.64,0.56,0.86
			c0.37,0.22,0.87,0.41,1.5,0.56c0.63,0.15,1.5,0.33,2.6,0.54c1.31,0.25,2.38,0.56,3.21,0.91c0.83,0.35,1.46,0.77,1.89,1.24
			C222.87,156.27,223.09,156.81,223.09,157.43z"/>
		<path d="M226.9,148.49h0.46v-2.01c0-0.54,0.02-0.96,0.05-1.27c0.04-0.31,0.14-0.57,0.3-0.79c0.16-0.23,0.4-0.41,0.71-0.56
			c0.31-0.14,0.66-0.21,1.04-0.21c0.54,0,1.02,0.16,1.46,0.48c0.29,0.21,0.47,0.47,0.55,0.78c0.08,0.31,0.12,0.74,0.12,1.3v2.28
			h1.55c0.6,0,1.06,0.11,1.37,0.34c0.31,0.22,0.47,0.51,0.47,0.86c0,0.45-0.22,0.76-0.67,0.94c-0.45,0.18-1.09,0.27-1.93,0.27h-0.79
			v6.15c0,0.52,0.02,0.93,0.07,1.21c0.05,0.28,0.17,0.51,0.37,0.69c0.2,0.18,0.53,0.26,0.98,0.26c0.25,0,0.58-0.03,1.01-0.1
			c0.42-0.07,0.75-0.1,0.99-0.1c0.34,0,0.65,0.11,0.92,0.32c0.27,0.22,0.41,0.48,0.41,0.8c0,0.54-0.37,0.95-1.11,1.24
			c-0.74,0.29-1.81,0.43-3.2,0.43c-1.32,0-2.32-0.18-3-0.53c-0.68-0.35-1.13-0.84-1.34-1.46c-0.21-0.62-0.32-1.45-0.32-2.49v-6.42
			h-0.56c-0.61,0-1.07-0.11-1.39-0.34c-0.32-0.23-0.48-0.52-0.48-0.87c0-0.35,0.17-0.64,0.5-0.86
			C225.77,148.61,226.26,148.49,226.9,148.49z"/>
		<path d="M249.71,150.07v0.4c0.79-0.78,1.62-1.35,2.48-1.71c0.86-0.36,1.83-0.55,2.91-0.55c1.3,0,2.5,0.27,3.59,0.8
			c1.09,0.53,1.96,1.31,2.59,2.33c0.64,1.02,0.95,2.23,0.95,3.63c0,1.03-0.18,1.98-0.55,2.84c-0.37,0.86-0.87,1.59-1.51,2.17
			c-0.64,0.58-1.4,1.03-2.27,1.35c-0.87,0.31-1.81,0.47-2.81,0.47c-1.21,0-2.22-0.19-3.04-0.58c-0.82-0.38-1.6-0.95-2.34-1.69v5.02
			c0,1.47-0.68,2.21-2.03,2.21c-0.79,0-1.32-0.19-1.58-0.57c-0.26-0.38-0.39-0.93-0.39-1.66V150.1c0-0.64,0.18-1.11,0.53-1.43
			c0.35-0.31,0.83-0.47,1.44-0.47c0.6,0,1.09,0.16,1.46,0.48C249.52,149.01,249.71,149.47,249.71,150.07z M257.99,154.94
			c0-0.88-0.17-1.64-0.51-2.27c-0.34-0.63-0.81-1.12-1.42-1.46c-0.6-0.34-1.27-0.51-2-0.51c-1.17,0-2.15,0.36-2.95,1.09
			c-0.8,0.73-1.2,1.8-1.2,3.21c0,1.33,0.4,2.37,1.19,3.11c0.79,0.74,1.78,1.11,2.96,1.11c0.7,0,1.35-0.16,1.95-0.48
			c0.6-0.32,1.08-0.81,1.44-1.45C257.81,156.63,257.99,155.85,257.99,154.94z"/>
		<path d="M277.42,155.82h-8.27c0.01,0.76,0.2,1.43,0.58,2.01c0.38,0.58,0.88,1.02,1.5,1.31c0.62,0.29,1.31,0.44,2.07,0.44
			c0.51,0,0.97-0.05,1.39-0.14c0.42-0.09,0.82-0.24,1.22-0.44c0.39-0.2,0.75-0.41,1.08-0.64c0.33-0.23,0.76-0.54,1.28-0.93
			c0.22-0.15,0.53-0.22,0.93-0.22c0.43,0,0.78,0.09,1.05,0.28c0.27,0.19,0.4,0.45,0.4,0.8c0,0.3-0.15,0.66-0.45,1.06
			c-0.3,0.4-0.75,0.79-1.35,1.16c-0.6,0.37-1.36,0.68-2.28,0.93c-0.91,0.25-1.96,0.37-3.15,0.37c-2.71,0-4.82-0.61-6.33-1.84
			c-1.51-1.23-2.26-2.89-2.26-4.99c0-0.99,0.19-1.91,0.56-2.75c0.37-0.85,0.91-1.57,1.63-2.17c0.71-0.6,1.59-1.07,2.63-1.39
			c1.04-0.32,2.2-0.48,3.47-0.48c1.65,0,3.07,0.28,4.25,0.83c1.18,0.55,2.07,1.26,2.65,2.14c0.59,0.87,0.88,1.76,0.88,2.67
			c0,0.84-0.3,1.39-0.91,1.64C279.38,155.7,278.52,155.82,277.42,155.82z M269.15,153.92h7.66c-0.1-1.14-0.49-2-1.17-2.57
			c-0.68-0.57-1.57-0.85-2.67-0.85c-1.05,0-1.92,0.29-2.59,0.86C269.71,151.94,269.3,152.79,269.15,153.92z"/>
		<path d="M296.26,155.82h-8.27c0.01,0.76,0.2,1.43,0.58,2.01c0.38,0.58,0.88,1.02,1.5,1.31c0.62,0.29,1.31,0.44,2.07,0.44
			c0.51,0,0.97-0.05,1.39-0.14c0.42-0.09,0.82-0.24,1.22-0.44c0.39-0.2,0.75-0.41,1.08-0.64c0.33-0.23,0.76-0.54,1.28-0.93
			c0.22-0.15,0.53-0.22,0.93-0.22c0.43,0,0.78,0.09,1.05,0.28c0.27,0.19,0.4,0.45,0.4,0.8c0,0.3-0.15,0.66-0.45,1.06
			c-0.3,0.4-0.75,0.79-1.35,1.16c-0.6,0.37-1.36,0.68-2.28,0.93c-0.91,0.25-1.96,0.37-3.15,0.37c-2.71,0-4.82-0.61-6.33-1.84
			c-1.51-1.23-2.26-2.89-2.26-4.99c0-0.99,0.19-1.91,0.56-2.75c0.37-0.85,0.91-1.57,1.63-2.17s1.59-1.07,2.63-1.39
			c1.04-0.32,2.2-0.48,3.47-0.48c1.65,0,3.07,0.28,4.25,0.83c1.18,0.55,2.07,1.26,2.65,2.14c0.59,0.87,0.88,1.76,0.88,2.67
			c0,0.84-0.3,1.39-0.91,1.64C298.22,155.7,297.36,155.82,296.26,155.82z M287.99,153.92h7.66c-0.1-1.14-0.49-2-1.17-2.57
			c-0.68-0.57-1.57-0.85-2.67-0.85c-1.05,0-1.92,0.29-2.59,0.86C288.55,151.94,288.14,152.79,287.99,153.92z"/>
		<path d="M307.49,156.97v2.79c0,0.68-0.2,1.19-0.6,1.53c-0.4,0.34-0.91,0.51-1.53,0.51c-0.61,0-1.11-0.17-1.5-0.51
			c-0.39-0.34-0.59-0.85-0.59-1.52v-9.31c0-1.5,0.69-2.25,2.06-2.25c0.7,0,1.21,0.18,1.52,0.53c0.31,0.35,0.48,0.87,0.51,1.56
			c0.51-0.69,1.02-1.2,1.56-1.56c0.53-0.35,1.24-0.53,2.13-0.53c0.89,0,1.75,0.18,2.58,0.53s1.25,0.82,1.25,1.4
			c0,0.41-0.18,0.75-0.53,1.01c-0.36,0.27-0.74,0.4-1.15,0.4c-0.15,0-0.53-0.08-1.12-0.23c-0.59-0.15-1.12-0.23-1.57-0.23
			c-0.62,0-1.12,0.13-1.52,0.39c-0.39,0.26-0.7,0.64-0.91,1.15c-0.22,0.51-0.37,1.11-0.45,1.81
			C307.53,155.12,307.49,155.97,307.49,156.97z"/>
		<path d="M330,157.43c0,0.92-0.28,1.71-0.85,2.37c-0.57,0.66-1.41,1.16-2.52,1.5c-1.11,0.34-2.46,0.51-4.05,0.51
			c-1.52,0-2.82-0.18-3.9-0.55c-1.08-0.37-1.88-0.83-2.4-1.38c-0.52-0.55-0.77-1.1-0.77-1.66c0-0.37,0.16-0.68,0.5-0.94
			c0.33-0.26,0.75-0.39,1.25-0.39c0.44,0,0.78,0.09,1.02,0.26c0.24,0.17,0.46,0.41,0.68,0.72c0.43,0.6,0.95,1.04,1.56,1.34
			c0.6,0.29,1.43,0.44,2.47,0.44c0.85,0,1.54-0.15,2.08-0.45c0.54-0.3,0.81-0.64,0.81-1.02c0-0.59-0.28-1.02-0.84-1.29
			c-0.56-0.27-1.49-0.53-2.78-0.77c-1.46-0.29-2.64-0.59-3.55-0.9c-0.91-0.31-1.64-0.73-2.19-1.24c-0.55-0.51-0.82-1.15-0.82-1.9
			c0-0.67,0.25-1.3,0.76-1.9c0.51-0.6,1.25-1.07,2.24-1.43c0.99-0.36,2.17-0.53,3.57-0.53c1.09,0,2.08,0.09,2.95,0.27
			c0.87,0.18,1.6,0.42,2.18,0.72c0.58,0.3,1.03,0.64,1.33,1c0.3,0.37,0.46,0.73,0.46,1.08c0,0.38-0.16,0.7-0.49,0.94
			c-0.33,0.25-0.79,0.37-1.39,0.37c-0.43,0-0.8-0.1-1.11-0.29c-0.3-0.2-0.65-0.49-1.04-0.88c-0.32-0.33-0.7-0.59-1.13-0.78
			s-1.02-0.29-1.76-0.29c-0.76,0-1.4,0.13-1.9,0.39c-0.51,0.26-0.76,0.58-0.76,0.96c0,0.35,0.19,0.64,0.56,0.86
			c0.37,0.22,0.87,0.41,1.5,0.56c0.63,0.15,1.5,0.33,2.6,0.54c1.31,0.25,2.38,0.56,3.21,0.91c0.83,0.35,1.46,0.77,1.89,1.24
			C329.79,156.27,330,156.81,330,157.43z"/>
	</g>
	<rect x="-3.65" y="266.67" style="fill:none;" width="6.21" height="4.92"/>
	<g>
		<path class="st1" d="M224.49,427.04h-13.95v37.95c0,5.43-0.72,9.54-2.15,12.35c-1.44,2.8-3.25,4.21-5.44,4.21
			c-2.29,0-4.14-1.39-5.54-4.16c-1.4-2.77-2.1-6.84-2.1-12.21V361.84c0-5.97,0.77-10.24,2.31-12.8s3.98-3.84,7.33-3.84h19.54
			c5.78,0,10.22,0.79,13.33,2.38c3.08,1.52,5.73,4.05,7.97,7.59c2.24,3.54,3.94,7.86,5.1,12.99c1.16,5.12,1.74,10.88,1.74,17.28
			c0,13.66-2.36,24-7.08,31.05C240.85,423.52,233.82,427.04,224.49,427.04z M220.8,365.59h-10.26v40.97h10.26
			c3.59,0,6.59-0.67,9-2.01c2.41-1.34,4.25-3.54,5.51-6.58c1.26-3.05,1.9-7.04,1.9-11.98c0-5.91-0.97-10.73-2.92-14.45
			C232.09,367.57,227.6,365.59,220.8,365.59z"/>
	</g>
	<g>
		<path class="st1" d="M168.31,92h-10.08v32.23c0,4.61-0.52,8.1-1.56,10.49c-1.04,2.38-2.35,3.57-3.93,3.57
			c-1.66,0-2.99-1.18-4-3.53c-1.01-2.36-1.52-5.81-1.52-10.37V36.62c0-5.07,0.56-8.7,1.67-10.87c1.11-2.17,2.88-3.26,5.3-3.26h14.12
			c4.18,0,7.39,0.67,9.64,2.02c2.22,1.29,4.14,3.44,5.76,6.45c1.62,3,2.85,6.68,3.69,11.03c0.84,4.35,1.26,9.24,1.26,14.68
			c0,11.6-1.7,20.39-5.11,26.37C180.13,89.01,175.05,92,168.31,92z M165.64,39.81h-7.41v34.8h7.41c2.59,0,4.76-0.57,6.5-1.71
			c1.74-1.14,3.07-3,3.98-5.59c0.91-2.59,1.37-5.98,1.37-10.18c0-5.02-0.7-9.11-2.11-12.27C173.81,41.49,170.56,39.81,165.64,39.81z
			"/>
		<path class="st1" d="M225.94,123.46l-2.59-14.29h-22.09l-2.59,14.6c-1.01,5.7-1.88,9.54-2.59,11.53
			c-0.72,1.99-1.89,2.99-3.52,2.99c-1.38,0-2.61-1.06-3.67-3.18c-1.06-2.12-1.59-4.53-1.59-7.22c0-1.55,0.12-3.16,0.37-4.82
			c0.25-1.66,0.65-3.96,1.22-6.91l13.9-73.95c0.4-2.12,0.87-4.67,1.43-7.65c0.56-2.98,1.15-5.45,1.78-7.42
			c0.63-1.97,1.46-3.56,2.48-4.78c1.03-1.22,6.61-1.22,7.63,0c1.03,1.22,1.85,2.78,2.48,4.7c0.63,1.92,1.16,3.97,1.59,6.18
			c0.43,2.2,0.98,5.14,1.65,8.82l14.19,73.48c1.11,5.59,1.67,9.66,1.67,12.19c0,2.64-0.53,5.06-1.58,7.26
			c-1.05,2.2-2.32,3.3-3.8,3.3c-0.86,0-3.36-2.5-3.78-3.61c-0.42-1.11-0.87-2.82-1.35-5.13
			C226.7,127.25,226.28,125.22,225.94,123.46z M204.15,91.85h16.23l-8.19-46.99L204.15,91.85z"/>
		<path class="st1" d="M256.55,34.52v82.88h22.31c1.78,0,3.14,0.91,4.1,2.72c0.95,1.81,1.43,4.09,1.43,6.84
			c0,2.8-0.47,5.06-1.41,6.8c-0.94,1.74-2.31,2.6-4.11,2.6h-26.57c-2.4,0-4.12-1.11-5.17-3.34c-1.05-2.23-1.58-5.83-1.58-10.8V34.52
			c0-4.66,0.5-8.16,1.5-10.49s6.94-2.34,7.97-0.04C256.03,26.3,256.55,29.81,256.55,34.52z"/>
		<path class="st1" d="M330,102.18c0,6.89-0.85,13.08-2.54,18.56c-1.69,5.49-4.17,9.79-7.43,12.89s-7.13,4.66-11.6,4.66
			c-5.36,0-9.78-2.12-13.27-6.37c-2.47-3.05-4.48-7.13-6.02-12.23c-1.54-5.1-2.32-10.06-2.32-14.87c0-2.8,0.46-5.19,1.39-7.18
			c0.93-1.99,5.68-2.21,6.49-0.66c0.8,1.55,1.49,3.86,2.06,6.91c0.69,3.63,1.44,6.65,2.24,9.09c0.8,2.43,1.93,4.44,3.39,6.02
			c1.46,1.58,3.37,2.37,5.74,2.37c3.26,0,5.91-1.59,7.95-4.78c2.04-3.18,3.06-7.16,3.06-11.92c0-3.78-0.55-6.85-1.65-9.2
			c-1.1-2.36-2.52-4.16-4.26-5.4c-1.74-1.24-12.09-9.23-14.8-12.07c-3.48-2.42-4.17-3.86-7.22-9.82c-1.54-4.43-3.35-9.21-3.35-15.78
			c0-6.27,0.82-11.83,2.45-16.7c1.63-4.87,3.99-8.61,7.08-11.22c3.09-2.61,6.72-3.92,10.9-3.92c3.34,0,6.22,0.87,8.65,2.6
			c2.43,1.74,4.45,4.04,6.06,6.91c1.61,2.87,2.78,5.89,3.52,9.05c0.74,3.16,1.11,6.24,1.11,9.24c0,2.74-0.46,5.22-1.39,7.42
			c-0.93,2.2-5.68,2.64-6.34,1.32c-0.66-1.32-1.37-3.48-2.13-6.49c-0.99-4.3-2.17-7.65-3.56-10.06c-1.38-2.41-3.61-3.61-6.67-3.61
			c-2.84,0-5.13,1.31-6.87,3.92c-1.74,2.62-2.61,5.76-2.61,9.44c0,2.28,0.3,4.25,0.89,5.9c0.59,1.66,1.41,3.08,2.45,4.27
			c1.04,1.19,2.09,2.12,3.15,2.8c1.06,0.67,15.33,13.92,17.07,16.51c1.74,2.59,2.9,2.9,6.93,10.64
			C329.51,94.37,330,96.43,330,102.18z"/>
	</g>
</g>
</svg>
